<?xml version="1.0" encoding="UTF-8"?>
<svg id="Camada_2" data-name="Camada 2" xmlns="http://www.w3.org/2000/svg" xmlns:xlink="http://www.w3.org/1999/xlink" viewBox="0 0 262.02 262.02">
  <defs>
    <style>
      .cls-1 {
        fill: #9d1927;
      }

      .cls-1, .cls-2, .cls-3, .cls-4, .cls-5 {
        stroke-width: 0px;
      }

      .cls-2 {
        fill: none;
      }

      .cls-3 {
        fill: #e83d4e;
      }

      .cls-4 {
        fill: url(#Gradiente_sem_nome_12-2);
      }

      .cls-5 {
        fill: url(#Gradiente_sem_nome_12);
      }
    </style>
    <linearGradient id="Gradiente_sem_nome_12" data-name="Gradiente sem nome 12" x1="131.01" y1="235.36" x2="131.01" y2="29.1" gradientUnits="userSpaceOnUse">
      <stop offset="0" stop-color="#373b47"/>
      <stop offset="1" stop-color="#4d5161"/>
    </linearGradient>
    <linearGradient id="Gradiente_sem_nome_12-2" data-name="Gradiente sem nome 12" x1="131.01" y1="214.02" x2="131.01" y2="50.61" xlink:href="#Gradiente_sem_nome_12"/>
  </defs>
  <g id="Camada_1-2" data-name="Camada 1">
    <rect class="cls-2" width="262.02" height="262.02"/>
    <g>
      <path class="cls-5" d="M131.01,29.05l-88.3,50.98v101.96l88.3,50.98,88.3-50.98v-101.96l-88.3-50.98ZM209.31,176.22l-78.3,45.21-78.3-45.21v-90.41l78.3-45.21,78.3,45.21v90.41Z"/>
      <path class="cls-4" d="M203.56,88.25l-71.8-41.45c-.47-.27-1.04-.27-1.5,0l-71.8,41.45c-.47.27-.75.77-.75,1.3v82.91c0,.54.28,1.03.75,1.3l71.8,41.46c.46.26,1.03.26,1.5,0l71.8-41.46c.46-.27.75-.76.75-1.3v-82.91c0-.53-.29-1.03-.75-1.3ZM199.31,167.55l-13-7.51-2-1.15h0s0,2.31,0,2.31c0,.36-.19.69-.5.87l-2,1.15h0s2,1.16,2,1.16l13,7.5-65.05,37.56c-.47.27-1.04.27-1.5,0l-65.05-37.56,13-7.5,2-1.16h0s-2-1.15-2-1.15c-.31-.18-.5-.51-.5-.87v-2.31l-2,1.15-13,7.51v-75.11c0-.54.28-1.03.75-1.3l65.05-37.56v17.32l2-1.15c.31-.18.69-.18,1,0l2,1.15h0s0-17.32,0-17.32l65.05,37.56c.46.27.75.76.75,1.3v75.11Z"/>
      <path class="cls-3" d="M184.31,100.81v60.39c0,.36-.19.69-.5.87l-2,1.15-50.3,29.05c-.31.17-.69.17-1,0l-50.3-29.05-2-1.15c-.31-.18-.5-.51-.5-.87v-60.39c0-.36.19-.69.5-.86l50.3-29.05,2-1.15c.31-.18.69-.18,1,0l2,1.15,50.3,29.05c.31.17.5.5.5.86Z"/>
      <path class="cls-1" d="M130.76,81.15l-42.8,24.71c-.15.09-.25.25-.25.43v49.43c0,.18.09.34.25.43l42.8,24.71c.15.09.34.09.5,0l42.8-24.71c.15-.09.25-.25.25-.43v-49.43c0-.18-.09-.34-.25-.43l-42.8-24.71c-.15-.09-.34-.09-.5,0ZM131.26,92.7l27.31,15.77c.33.19.33.67,0,.86l-27.31,15.77c-.15.09-.34.09-.5,0l-27.31-15.77c-.33-.19-.33-.67,0-.86l27.31-15.77c.15-.09.34-.09.5,0ZM98.45,117.99l27.31,15.77c.15.09.25.25.25.43v31.53c0,.38-.41.62-.74.43l-27.31-15.77c-.15-.09-.25-.25-.25-.43v-31.53c0-.38.41-.62.74-.43ZM136.01,165.72v-31.53c0-.18.09-.34.25-.43l27.31-15.77c.33-.19.74.05.74.43v31.53c0,.18-.09.34-.25.43l-27.31,15.77c-.33.19-.74-.05-.74-.43Z"/>
    </g>
  </g>
</svg>